<svg width="689" height="703" viewBox="0 0 689 703" fill="none" xmlns="http://www.w3.org/2000/svg">
<path d="M396.391 359.168C396.391 359.168 434.626 372.148 453.007 351.543C482.004 319.126 513.589 312.668 494.345 383.608C486.094 413.953 541.457 313.512 560.973 327.011C575.779 337.426 541.59 376.042 556.044 373.209C595.202 365.21 628.158 322.66 628.158 322.66L621.297 357.934L628.649 322.424C628.649 322.424 609.622 317.536 604.336 309.666" stroke="black" stroke-width="5" stroke-miterlimit="10" stroke-linecap="round" stroke-linejoin="round"/>
<path d="M378.291 384.046L227.024 511.064L289.593 498.432C191.661 589.982 138.129 643.333 138.129 643.333L150.069 595.896L137.224 644.506C137.224 644.506 173.285 625.716 183.614 627.742" stroke="black" stroke-width="5" stroke-miterlimit="10" stroke-linecap="round" stroke-linejoin="round"/>
<path d="M347.978 336.217C347.978 336.217 410.658 368.171 412.577 425.573C414.496 482.975 383.73 503.063 401.291 550.792C416.811 592.947 489.758 621.126 489.758 621.126C489.758 621.126 482.895 621.33 476.255 621.628C470.065 621.851 465.923 624.327 465.923 624.327C465.923 624.327 470.294 621.422 476.707 621.292C477.306 621.279 477.98 621.297 478.579 621.284C484.368 621.244 489.658 621.171 489.658 621.171C489.658 621.171 479.725 611.525 476.911 605.979" stroke="black" stroke-width="5" stroke-miterlimit="10" stroke-linecap="round" stroke-linejoin="round"/>
<path d="M250.79 332.007C250.79 332.007 215.965 404.51 171.212 368.595C132.234 337.458 83.8921 394.712 83.8921 394.712C83.8921 394.712 86.5337 386.974 88.6888 379.604C89.2682 377.73 89.6853 375.979 90.2267 374.265C91.337 370.164 91.8852 366.748 91.8852 366.748C91.8852 366.748 91.1474 370.96 89.6474 376.139C87.2267 384.624 83.6645 395.667 83.6645 395.667C83.6645 395.667 96.8861 394.3 100.453 397.742" stroke="black" stroke-width="5" stroke-miterlimit="10" stroke-linecap="round" stroke-linejoin="round"/>
<path d="M320.269 322.012C320.269 322.012 302.332 274.718 353.355 254.023C486.315 200.041 462.441 104.902 461.505 91.476M461.505 91.476L471.149 105.46M461.505 91.476C461.505 91.476 452.3 103.116 447.024 103.408" stroke="black" stroke-width="5" stroke-miterlimit="10" stroke-linecap="round" stroke-linejoin="round"/>
<path d="M256.384 316.693C256.384 316.693 126.427 202.753 192.506 153.963C238.469 120.06 283.448 197.14 251.129 228.533C224.422 254.499 163.348 233.719 159.445 164.457C157.782 134.662 163.555 102.231 200.365 40.0375M200.365 40.0375L184.759 46.9641M200.365 40.0375C200.365 40.0375 203.575 53.4978 207.38 59.0357" stroke="black" stroke-width="5" stroke-miterlimit="10" stroke-linecap="round" stroke-linejoin="round"/>
<path fill-rule="evenodd" clip-rule="evenodd" d="M413.786 309.21L432.866 287.165L458.035 331.189L430.778 359.957L373.652 334.229L392.674 327.375L416.57 342.568L425.964 341.016L434.198 333.388L434.894 324.336L432.866 312.959L424.05 309.209H413.797L413.786 309.21Z" fill="url(#paint0_linear_148_179)"/>
<path fill-rule="evenodd" clip-rule="evenodd" d="M219.275 251.48L217.187 272.038L204.951 262.857L209.706 285.678L201.53 296.28L196.774 309.21L180.419 325.048L181.811 334.229L195.44 341.728L201.53 343.279L222.64 337.201L227.395 337.978L235.573 344.054L242.359 365.26L249.839 390.28L263.469 406.958L306.326 412.258L326.74 406.181L344.37 391.764L365.48 387.238L360.724 375.086L245.092 301.575L219.285 251.476L219.275 251.48Z" fill="url(#paint1_linear_148_179)"/>
<path fill-rule="evenodd" clip-rule="evenodd" d="M345.179 390.862L348.426 408.509L354.573 418.338L371.798 431.201L376.148 439.799L375.046 444.907L373.944 449.754L371.161 458.546L369.421 461.91L367.622 464.431L365.36 465.854L362.113 466.952L360.142 467.147L358.344 468.115L355.733 469.861L352.427 473.094L351.558 475.033L352.66 476.456L354.689 476.908L357.53 477.297L360.548 477.876H363.853L367.622 477.62L370.639 476.778L376.148 471.8L390.646 438.506L386.064 427.776L384.094 409.61L371.219 386.207L353.529 388.146L345.175 390.848L345.179 390.862Z" fill="url(#paint2_linear_148_179)"/>
<path fill-rule="evenodd" clip-rule="evenodd" d="M259.638 404.243L261.493 421.116L259.638 443.031L253.955 461.974L248.503 465.402L244.444 468.31L241.428 471.67L242.008 474.387L243.4 475.679L247.112 476.391H254.94L258.478 475.679L262.016 474.065L265.322 471.348L266.133 468.116L265.902 462.491L268.106 456.35L269.846 453.894L272.687 445.554L274.368 437.278L277.732 425.967L276.573 412.259L258.71 400.949L254.592 396.358L259.633 404.255L259.638 404.243Z" fill="url(#paint3_linear_148_179)"/>
<path fill-rule="evenodd" clip-rule="evenodd" d="M203.675 261.564L204.604 265.313L209.359 269.84L212.374 273.394L215.68 276.821L219.74 282.64L215.738 286.713L213.303 289.751L209.301 294.278L205.879 299.449L204.023 303.586L202.806 309.146L203.096 312.249L204.023 315.351L205.879 318.131L208.315 319.812L211.157 320.847L213.767 320.717L217.884 320.524L223.974 326.729L227.337 330.802L231.861 335.522L234.703 338.367L237.313 341.017L238.937 344.055L243.228 352.396L245.084 358.473L246.476 365.454L248.505 372.371L250.014 375.603L252.101 378.642L255.523 382.716L258.712 385.754L261.961 387.629L266.541 388.922L275.821 410.448L282.432 447.879V474.773L274.081 480.141L270.833 486.928L273.327 488.543L277.387 489.127H284.172L291.189 488.026L297.337 484.085L296.814 472.189L295.423 463.913L296.524 444.454L299.715 406.246L297.975 396.356L297.685 394.095L299.134 392.801L301.106 392.606L303.136 393.123L308.008 394.156L313.517 394.351L318.795 393.769L323.087 393.318L328.189 392.282L333.293 390.797L342.34 388.922L349.938 387.239L355.39 386.336H359.738L364.146 387.239L381.951 408.899L399.638 422.152L406.482 433.917L407.758 442.45L407.99 450.79V458.419L407.758 462.296L407.351 466.692L406.714 469.083L406.191 470.958L405.554 472.576L404.568 474.321L399.29 476.778L397.086 478.522L396.043 479.559L394.883 481.691L393.897 485.183L394.246 487.057L395.29 488.09L397.318 488.285L399.463 488.09L406.482 487.057L414.078 484.923L418.022 481.108L426.315 431.459L416.746 415.555L415.122 412.517L414.311 409.479L413.092 403.143L421.965 378.901L419.936 365.26L388.734 336.621L392.099 336.815L395.694 337.462L398.712 338.753L403.466 341.47L406.249 342.763L409.324 343.41H414.253L402.885 326.601L391.345 319.812L379.746 316.71H366.175L348.429 319.036L333.525 322.851L315.856 325.021L295.384 321.272L283.785 320.496L274.912 311.704L267.836 306.015L251.888 292.373L248.177 289.207L245.741 284.488L238.034 267.876L219.882 249.386L218.49 250.808L218.2 254.946H219.418L220.636 255.27L222.028 256.497L223.072 258.63L224.812 262.251L226.262 266.196L228.524 271.753L230.09 276.796L231.598 280.482L232.873 282.679L230.495 281.58L227.769 280.999H224.406L221.854 281.387L219.824 282.679L217.91 268.716L206.775 258.76L203.644 261.539L203.675 261.564Z" fill="url(#paint4_linear_148_179)"/>
<path fill-rule="evenodd" clip-rule="evenodd" d="M384.037 317.161L377.426 305.719L374.814 290.267L378.584 274.817L390.067 260.466L407.407 254.13L425.502 256.264L442.145 262.469L453.628 272.748L461.4 287.166L465.517 307.594V319.812L463.892 338.948L454.497 356.661L442.203 366.1L428.575 368.621L414.597 365.518L399.694 352.588L389.834 337.461L398.185 342.114L404.39 346.512L410.828 349.743L416.106 350.713L421.324 350.843L426.139 350.713L430.256 349.743L433.213 348.58L435.534 347.157L437.855 345.542L440 343.925L441.74 341.986L443.073 340.046L444.29 337.655L445.393 334.292L445.915 329.638L446.552 323.691L446.205 318.906L445.103 314.64L443.305 310.76L441.856 308.498L439.941 306.688L437.449 305.265L434.432 304.038L431.473 303.455H428.052L423.644 304.813L417.207 307.592L408.391 314.445L407.233 325.435L409.146 335.779L399.172 324.077L384.004 317.16L384.037 317.161Z" fill="url(#paint5_linear_148_179)"/>
<path fill-rule="evenodd" clip-rule="evenodd" d="M265.323 301.451L265.903 302.939V304.102L265.555 307.14L264.974 309.663L264.047 313.671L263.003 317.744L261.379 321.105L258.885 326.083L256.798 330.026L253.55 335.069L249.548 340.176L246.475 343.279L244.213 345.347L241.893 347.093L239.225 348.903L237.196 349.937L236.094 350.585L235.166 351.876L234.934 353.429L235.166 355.368L235.572 357.436L236.152 359.763L236.731 360.474L237.37 360.605L237.775 358.923L238.355 357.953L239.225 357.178L245.721 353.687L249.664 351.229L252.854 348.903L256.508 345.346L259.118 342.244L262.307 338.431L265.033 334.809L267.41 330.543L269.15 326.276L270.947 321.298L271.76 317.418L272.456 312.506L272.34 309.791L271.933 307.528L271.122 306.041L269.846 304.619L265.321 301.453L265.323 301.451Z" fill="url(#paint6_linear_148_179)"/>
<path fill-rule="evenodd" clip-rule="evenodd" d="M219.391 279.085L211.04 285.548L203.964 291.237L202.166 293.306L200.774 296.214L199.035 300.094L195.614 309.016L193.352 311.924L190.568 314.769L181.811 322.331L189.929 316.577L192.597 314.379L195.149 311.923L197.353 309.467L198.803 306.171L201.006 299.9L202.514 296.925L204.254 294.145L205.704 291.883L207.676 289.749L211.677 286.194L219.391 279.085Z" fill="url(#paint7_linear_148_179)"/>
<path fill-rule="evenodd" clip-rule="evenodd" d="M177.52 324.789L178.853 324.078L180.535 323.173H182.971L185.348 324.078L187.668 324.919L188.886 326.342V327.893L187.668 329.121L185.986 329.25L184.304 328.993L182.275 328.54L182.333 330.22L182.448 332.613L184.247 334.941L185.522 336.168L187.668 337.009L189.582 337.591H192.075L195.613 337.138L199.151 336.493L202.108 335.847L215.215 331.32L216.374 331.256L216.78 332.16L216.49 333.131L215.505 333.649L209.705 335.2L206.863 336.105L203.558 337.009L200.484 337.979L197.584 338.433L194.802 338.884H191.785L188.712 338.819L185.812 338.237L184.072 337.463L182.623 336.686L181.172 334.811L180.187 330.35L178.853 328.994L177.925 328.152L177.171 326.988V325.695L177.52 324.789Z" fill="url(#paint8_linear_148_179)"/>
<path fill-rule="evenodd" clip-rule="evenodd" d="M194.628 344.184L196.367 344.959L198.745 345.218H200.833L202.979 344.959L205.588 344.314L207.966 343.474L211.967 341.274L216.143 339.723L219.043 339.141L221.885 338.624L225.075 339.011L228.321 339.659L230.99 341.209L237.195 346.898L231.454 339.722L229.772 338.365L227.162 337.331L224.726 336.749H222.349L219.797 336.943L216.376 337.847L212.258 339.464L206.69 341.144L203.211 342.179L200.949 342.439H199.093L196.367 341.985L192.308 340.692L193.236 342.825L194.628 344.184Z" fill="url(#paint9_linear_148_179)"/>
<path fill-rule="evenodd" clip-rule="evenodd" d="M239.863 361.315L239.689 362.608L240.79 368.362L243.342 376.636L245.488 382.199L247.634 387.755L249.142 390.666L250.999 393.64L252.738 396.226L255.29 398.617L268.918 408.508L260.452 400.881L256.797 397.132L253.956 393.64L250.999 389.052L248.505 383.684L246.127 377.348L244.793 373.147L243.982 369.333L243.17 362.48L242.532 361.122L241.024 360.799L239.866 361.323L239.863 361.315Z" fill="url(#paint10_linear_148_179)"/>
<path fill-rule="evenodd" clip-rule="evenodd" d="M308.468 413.943L313.977 413.167L319.313 411.678L324.938 409.095L329.462 406.184L338.568 397.522L343.322 394.032L348.02 392.158L352.718 390.218L356.951 388.795L362.113 387.242L355.676 387.181L352.081 387.633L348.426 388.409L345.7 389.573L343.091 390.671L334.044 398.752L328.36 402.567L321.459 406.056L316.413 407.869L311.658 408.903L303.597 410.001L300.407 410.26L300.233 413.749L303.712 414.201L308.47 413.928L308.468 413.943Z" fill="url(#paint11_linear_148_179)"/>
<path fill-rule="evenodd" clip-rule="evenodd" d="M264.278 302.745L254.884 293.758L251.694 291.173L249.258 287.682L247.983 283.803L246.591 280.634L245.083 277.015L242.88 272.812L239.864 268.416L234.586 262.986L224.207 252.837L219.974 248.44L218.292 248.505L216.959 249.734L216.378 251.802V254.646L216.553 263.245L217.248 269.257L217.481 274.042L218.118 279.148L218.814 281.539L219.8 283.737L220.38 278.954L220.205 276.11L219.568 273.524L219.278 267.77V260.659L219.104 257.039L218.698 253.548L219.104 251.802L220.38 251.157L221.656 251.609L230.587 262.017L238.3 271.584L240.736 275.915L242.882 279.6L243.809 282.575L244.912 286.001L245.781 288.716L246.999 290.138L248.333 291.625L251.464 294.018L257.902 298.025L264.277 302.745H264.278Z" fill="url(#paint12_linear_148_179)"/>
<path fill-rule="evenodd" clip-rule="evenodd" d="M218.695 269.128L209.3 261.177L205.473 257.621L203.733 258.01L202.167 258.978L201.993 260.983L202.69 264.151L203.908 267.319L205.183 271.909L206.575 275.593L209.649 286.972L212.085 285.549L205.88 264.861L205.183 261.178L205.88 259.82L209.127 262.6L218.696 271.909V269.128H218.695Z" fill="url(#paint13_linear_148_179)"/>
<path fill-rule="evenodd" clip-rule="evenodd" d="M274.31 311.536L279.007 314.446L281.327 316.386L283.647 317.873L285.503 318.131L291.36 318.261L294.144 318.649L296.637 319.294L298.842 320.524L308.41 327.376L300.233 324.336L297.217 323.561L295.188 323.431L293.39 323.561L288.692 323.756H287.184L285.909 323.561L284.112 322.398L281.328 319.423L277.906 315.997L275.76 313.41L274.31 311.538V311.536Z" fill="url(#paint14_linear_148_179)"/>
<path fill-rule="evenodd" clip-rule="evenodd" d="M306.85 322.914L315.432 323.818H320.42L325.814 323.172L330.163 322.525L335.903 321.427L341.239 320.262L354.577 317.483L362.175 316.255L366.349 315.996L370.99 315.867L376.906 315.996L379.979 316.255L382.995 316.966L387.925 318.259L391.462 319.423L395.115 321.039L397.957 322.786L401.495 325.24L405.728 329.313L408.395 332.288L410.89 335.651L415.181 342.567L410.773 341.856L407.931 337.073L404.974 331.965L400.974 326.988L398.362 324.466L395.52 322.722L390.359 320.524L383.922 318.519L379.167 317.679L373.598 317.161L369.77 316.967L364.784 317.419L360.608 318.067L355.621 318.971L345.587 321.622L337.006 323.626L330.162 325.436L322.391 326.988L319.607 327.181L316.823 326.988L312.068 325.178L306.853 322.914L306.85 322.914Z" fill="url(#paint15_linear_148_179)"/>
<path fill-rule="evenodd" clip-rule="evenodd" d="M408.222 330.286L405.728 324.598L405.089 321.43V317.615L406.25 314.124L408.512 311.345L411.412 309.404L414.659 307.79L417.617 307.078L420.632 306.755L423.59 306.885L425.736 307.466L428.926 308.501L431.477 310.052L433.216 311.475L434.957 313.866L436.29 317.162L436.813 320.718V324.08L436.233 327.766L435.362 330.997L433.622 334.684L431.709 337.657L428.926 340.179L425.504 342.311L420.864 343.863L415.993 344.252L411.586 343.991L407.236 343.151L402.48 340.889L410.656 342.506L415.76 342.764L418.66 342.246L421.619 341.665L424.691 340.307L426.953 339.013L429.1 336.622L430.608 334.294L431.71 331.386L432.29 328.025L432.115 324.599L431.536 320.914L430.551 318.198L429.332 316.258L427.767 314.771L424.925 313.027L422.547 312.443L420.518 312.315L418.662 312.443L416.4 312.703L414.428 313.543L412.572 314.771L410.891 316.388L409.384 318.52L408.396 322.593L408.228 330.289L408.222 330.286Z" fill="url(#paint16_linear_148_179)"/>
<path fill-rule="evenodd" clip-rule="evenodd" d="M363.447 361.508L361.533 364.805L360.72 368.942L360.548 372.562V376.634L362.518 383.164L364.2 387.495L369.072 395.576L374.525 402.234L387.399 415.747L390.182 418.334L393.429 421.502L397.432 424.474L401.722 427.383L404.797 431.392L406.826 435.659L405.55 428.547L404.274 426.35L402.476 424.023L397.198 419.884L393.197 417.363L389.602 414.841L385.658 410.64L380.903 405.857L372.319 397.129L368.143 390.923L365.013 384.714L363.447 379.027L362.867 374.502L363.447 369.395L364.838 365.709L366.578 363.964L366.983 362.412L367.158 361.312L366.172 360.279L364.838 360.02L363.452 361.507L363.447 361.508Z" fill="url(#paint17_linear_148_179)"/>
<path fill-rule="evenodd" clip-rule="evenodd" d="M419.935 369.075L420.167 375.735L419.702 379.29L418.658 382.588L417.673 385.626L416.513 388.664L413.788 395.581L412.686 398.878L412.221 401.013L412.336 403.145L414.598 409.803L414.076 404.051L414.193 401.852L414.657 400.172L416.572 395.581L418.658 390.733L420.515 385.95L421.849 381.489L422.835 376.122L423.472 369.657L419.933 369.068L419.935 369.075Z" fill="url(#paint18_linear_148_179)"/>
<path fill-rule="evenodd" clip-rule="evenodd" d="M420.747 421.115L427.767 429.455L428.463 431.07L428.81 431.977L428.635 433.14L428.171 434.885L425.678 443.485L424.691 448.268L423.706 456.154L422.025 467.146L419.996 480.075L419.124 481.433L417.849 482.853L416.11 484.02L414.137 484.858L408.569 486.603L415.703 481.821L417.21 480.462L417.848 479.234L420.225 463.849L421.27 448.981L421.85 444.389L423.008 439.217L424.053 434.304L424.285 432.755L423.762 431.267L422.428 428.098L415.817 414.007L420.742 421.107L420.747 421.115Z" fill="url(#paint19_linear_148_179)"/>
<path fill-rule="evenodd" clip-rule="evenodd" d="M386.299 424.542L387.923 430.487L390.416 433.916L392.213 436.889L393.142 439.024L393.315 440.057L393.027 441.221L390.88 444.388L384.096 458.093L377.716 471.476L376.846 473.481L374.642 474.706L369.654 477.296L372.671 473.998L374.178 472.77L375.281 470.83L378.818 463.526L382.298 455.959L386.588 447.167L388.676 443.678L389.721 440.315V438.313L388.676 436.503L386.299 431.912L385.603 427.516L384.965 423.377L384.676 414.262L386.294 424.552L386.299 424.542Z" fill="url(#paint20_linear_148_179)"/>
<path fill-rule="evenodd" clip-rule="evenodd" d="M213.65 306.559L211.794 306.042L210.402 305.914L209.184 306.107L208.083 307.27L207.387 308.434L207.039 309.857L207.213 311.343L208.083 312.377L209.648 313.088L210.982 313.606L212.491 313.476L213.94 312.571L215.332 310.439L216.898 307.659L213.65 306.559Z" fill="url(#paint21_linear_148_179)"/>
<path fill-rule="evenodd" clip-rule="evenodd" d="M260.102 405.471L262.075 424.414L260.74 435.793L258.943 448.27L257.783 454.863L257.202 457.965L256.101 461.004L255.522 462.752L254.188 463.85L250.767 464.883L247.692 466.436L245.72 467.534L243.981 469.149L242.705 470.186L241.893 471.414L241.719 472.255L241.893 473.483L242.648 475.358L241.372 474.516L240.618 472.834L240.675 471.413L242.241 469.408L246.765 465.916L249.839 464.041L253.029 461.91L253.841 460.746L254.826 457.318L255.523 454.215L256.334 450.79L259.408 431.201L260.741 418.337L260.103 405.475L260.102 405.471Z" fill="url(#paint22_linear_148_179)"/>
<path fill-rule="evenodd" clip-rule="evenodd" d="M262.132 473.93L263.814 473.088L265.439 471.343L266.599 469.017L266.946 467.142L266.599 464.686L267.178 459.059L267.758 456.732L269.266 454.081L271.295 451.498L278.428 426.414L275.76 420.466L274.252 433.008L270.425 448.265L269.092 451.433L266.075 456.605L265.438 459.578L265.322 462.486L265.147 465.85L265.437 467.981L265.611 469.727L264.799 471.344L262.13 473.931L262.132 473.93Z" fill="url(#paint23_linear_148_179)"/>
<path fill-rule="evenodd" clip-rule="evenodd" d="M296.639 394.865L298.495 402.946L298.727 409.864L297.799 419.368L296.755 425.057L295.711 434.496L294.957 443.545L294.726 455.7L295.306 464.428L296.233 475.03L296.813 479.813L296.059 482.659L294.668 485.115L292.29 487.829L295.537 487.442L296.465 487.055L297.336 486.343L298.263 484.339L298.785 481.818V479.04L298.495 475.355L297.799 472.252L296.813 464.363L296.233 457.381L296.988 444L297.22 437.664L298.322 429.714L299.482 419.95L300.293 413.163L300.41 406.956L300.236 402.496L299.482 398.875L298.379 396.611L296.639 394.865Z" fill="url(#paint24_linear_148_179)"/>
<path fill-rule="evenodd" clip-rule="evenodd" d="M272.285 399.011L274.372 404.697L276.75 410.776L278.316 417.047L280.229 427.195L282.144 438.768L282.898 444.198L283.246 450.146V465.727L282.898 473.938L282.375 475.422L281.39 476.459L278.374 478.139L275.591 480.143L273.561 482.148L270.835 486.93L272.633 480.982L273.794 479.302L275.591 478.139L278.838 475.938L280.694 474.518L281.39 471.997L281.621 464.693L281.564 450.792L280.229 438.767L278.838 431.463L277.389 425.128L275.474 416.465L271.532 404.697L269.674 399.268L265.732 387.759L262.368 371.987L265.442 380.389L267.588 388.018L272.287 399.027L272.285 399.011Z" fill="url(#paint25_linear_148_179)"/>
<path fill-rule="evenodd" clip-rule="evenodd" d="M345.933 394.225L347.44 403.534L347.903 409.418L348.948 413.038L350.457 415.364L353.471 419.308L356.312 421.443L359.271 423.769L362.576 425.97L367.563 430.236L370.638 432.172L372.901 434.954L374.407 438.381L374.929 441.159L373.538 450.793L376.148 444.587L376.902 442.582L377.017 439.544L376.437 436.957L374.64 433.594L371.914 429.91L368.842 425.969L365.825 423.445L362.289 421.443L358.809 418.986L354.228 415.042L351.734 412.003L349.182 406.896L346.92 399.848L345.934 394.229L345.933 394.225Z" fill="url(#paint26_linear_148_179)"/>
<path fill-rule="evenodd" clip-rule="evenodd" d="M248.389 469.281L246.127 470.768L243.866 472.579L242.242 474.324L246.476 472.192L248.738 470.769L248.854 469.734L248.389 469.281Z" fill="url(#paint27_linear_148_179)"/>
<path fill-rule="evenodd" clip-rule="evenodd" d="M250.71 470.768L248.1 472.966L247.751 474.001L251 472.579L251.347 471.868L251.173 471.221L250.71 470.768Z" fill="url(#paint28_linear_148_179)"/>
<path fill-rule="evenodd" clip-rule="evenodd" d="M276.398 483.049L275.585 483.565L272.048 489.193L276.92 485.184L277.557 484.342V483.438L276.397 483.05L276.398 483.049Z" fill="url(#paint29_linear_148_179)"/>
<path fill-rule="evenodd" clip-rule="evenodd" d="M280.517 484.084L276.921 490.611L281.85 485.246V484.34L281.038 483.954L280.516 484.09L280.517 484.084Z" fill="url(#paint30_linear_148_179)"/>
<path fill-rule="evenodd" clip-rule="evenodd" d="M359.161 468.699L356.899 470.122L354.636 471.996L353.012 473.741L357.246 471.61L359.508 470.122L359.566 469.086L359.16 468.698L359.161 468.699Z" fill="url(#paint31_linear_148_179)"/>
<path fill-rule="evenodd" clip-rule="evenodd" d="M361.417 470.122L358.866 472.383L358.517 473.419L361.765 471.996L362.113 471.22L361.938 470.574L361.416 470.121L361.417 470.122Z" fill="url(#paint32_linear_148_179)"/>
<path fill-rule="evenodd" clip-rule="evenodd" d="M398.128 480.591L397.316 481.108L393.779 486.733L398.651 482.726L399.288 481.884V480.978L398.128 480.59V480.591Z" fill="url(#paint33_linear_148_179)"/>
<path fill-rule="evenodd" clip-rule="evenodd" d="M402.247 481.691L398.652 488.157L403.581 482.789V481.885L402.768 481.498L402.246 481.692L402.247 481.691Z" fill="url(#paint34_linear_148_179)"/>
<path fill-rule="evenodd" clip-rule="evenodd" d="M383.166 316.579L378.411 306.172L376.787 301.258L375.974 296.345L375.742 290.526L376.554 284.32L378.932 277.404L381.367 273.201L385.195 267.512L387.979 264.474L391.167 261.822L396.793 258.654L401.78 256.844L405.665 255.939L409.204 255.616L413.844 255.423L418.656 256.069L422.89 256.844L428.052 258.461L433.677 260.208L440.056 263.116L445.161 266.413L448.871 269.452L451.713 272.813L455.309 277.274L458.035 282.058L460.18 286.841L461.979 292.919L463.139 299.707L463.949 306.754L464.299 313.607L463.777 323.757L463.139 328.994L461.979 334.941L460.818 339.661L458.847 344.509L456.641 348.582L454.149 352.462L451.249 355.434L447.537 358.537L442.898 361.512L438.433 363.322L434.256 364.679L428.631 365.585L422.368 365.39L415.176 363.773L410.537 361.705L407.058 359.249L404.042 356.663L400.563 352.59L397.026 347.289L394.009 341.924L392.27 339.339L390.241 337.334L387.92 336.429L377.017 334.943L385.195 337.204L387.514 337.851L389.603 339.209L391.399 340.954L393.429 344.317L396.735 350.651L399.752 355.306L402.882 359.249L406.536 363.709L410.248 366.49L414.191 368.752L418.832 370.306L423.47 370.884L429.327 370.498L434.199 369.787L438.723 368.752L443.304 367.073L447.016 364.68L451.192 361.514L453.802 359.121L456.934 355.952L459.949 351.363L462.443 346.515L464.3 341.278L465.632 335.46L466.503 330.805L467.141 324.211V318.652L466.967 312.834L466.503 307.143L465.46 301.649L464.415 296.283L463.487 291.24L461.747 286.003L459.95 281.607L458.21 278.052L456.643 275.529L453.513 271.716L450.149 267.902L446.844 265.251L443.421 263.117L439.362 260.66L433.214 257.946L427.879 256.264L423.761 255.101L420.107 254.196L414.25 253.356L409.552 253.226L405.32 253.743L401.607 254.647L396.389 256.394L391.923 258.656L386.412 263.117L382.759 267.126L379.743 271.328L376.786 276.757L374.756 282.06L373.712 287.231L373.365 293.05L373.944 299.903L375.741 305.267L378.119 309.404L380.265 312.767L383.166 316.597V316.579Z" fill="url(#paint35_linear_148_179)"/>
<defs>
<linearGradient id="paint0_linear_148_179" x1="177.171" y1="359.971" x2="177.171" y2="287.18" gradientUnits="userSpaceOnUse">
<stop stop-color="white"/>
<stop offset="1" stop-color="white"/>
</linearGradient>
<linearGradient id="paint1_linear_148_179" x1="177.171" y1="412.262" x2="177.171" y2="251.492" gradientUnits="userSpaceOnUse">
<stop stop-color="white"/>
<stop offset="1" stop-color="white"/>
</linearGradient>
<linearGradient id="paint2_linear_148_179" x1="177.171" y1="477.904" x2="177.171" y2="386.22" gradientUnits="userSpaceOnUse">
<stop stop-color="#FEE0A5"/>
<stop offset="1" stop-color="#BE7929"/>
</linearGradient>
<linearGradient id="paint3_linear_148_179" x1="177.171" y1="476.409" x2="177.171" y2="396.381" gradientUnits="userSpaceOnUse">
<stop stop-color="#FEE0A5"/>
<stop offset="1" stop-color="#BE7929"/>
</linearGradient>
<linearGradient id="paint4_linear_148_179" x1="177.172" y1="489.135" x2="177.172" y2="249.421" gradientUnits="userSpaceOnUse">
<stop stop-color="#FEE0A5"/>
<stop offset="1" stop-color="#BE7929"/>
</linearGradient>
<linearGradient id="paint5_linear_148_179" x1="177.172" y1="368.637" x2="177.172" y2="254.142" gradientUnits="userSpaceOnUse">
<stop stop-color="#FEE0A5"/>
<stop offset="1" stop-color="#BE7929"/>
</linearGradient>
<linearGradient id="paint6_linear_148_179" x1="177.172" y1="360.61" x2="177.172" y2="301.466" gradientUnits="userSpaceOnUse">
<stop/>
<stop offset="1"/>
</linearGradient>
<linearGradient id="paint7_linear_148_179" x1="177.171" y1="322.346" x2="177.171" y2="279.095" gradientUnits="userSpaceOnUse">
<stop/>
<stop offset="1"/>
</linearGradient>
<linearGradient id="paint8_linear_148_179" x1="177.171" y1="338.888" x2="177.171" y2="323.187" gradientUnits="userSpaceOnUse">
<stop/>
<stop offset="1"/>
</linearGradient>
<linearGradient id="paint9_linear_148_179" x1="177.171" y1="346.914" x2="177.171" y2="336.754" gradientUnits="userSpaceOnUse">
<stop/>
<stop offset="1"/>
</linearGradient>
<linearGradient id="paint10_linear_148_179" x1="177.172" y1="408.503" x2="177.172" y2="360.826" gradientUnits="userSpaceOnUse">
<stop/>
<stop offset="1"/>
</linearGradient>
<linearGradient id="paint11_linear_148_179" x1="177.172" y1="414.224" x2="177.172" y2="387.205" gradientUnits="userSpaceOnUse">
<stop/>
<stop offset="1"/>
</linearGradient>
<linearGradient id="paint12_linear_148_179" x1="177.172" y1="302.759" x2="177.172" y2="248.453" gradientUnits="userSpaceOnUse">
<stop/>
<stop offset="1"/>
</linearGradient>
<linearGradient id="paint13_linear_148_179" x1="177.172" y1="286.982" x2="177.172" y2="257.634" gradientUnits="userSpaceOnUse">
<stop/>
<stop offset="1"/>
</linearGradient>
<linearGradient id="paint14_linear_148_179" x1="177.173" y1="327.39" x2="177.173" y2="311.547" gradientUnits="userSpaceOnUse">
<stop/>
<stop offset="1"/>
</linearGradient>
<linearGradient id="paint15_linear_148_179" x1="177.171" y1="342.603" x2="177.171" y2="315.884" gradientUnits="userSpaceOnUse">
<stop/>
<stop offset="1"/>
</linearGradient>
<linearGradient id="paint16_linear_148_179" x1="177.174" y1="344.262" x2="177.174" y2="306.767" gradientUnits="userSpaceOnUse">
<stop/>
<stop offset="1"/>
</linearGradient>
<linearGradient id="paint17_linear_148_179" x1="177.171" y1="435.694" x2="177.171" y2="360.057" gradientUnits="userSpaceOnUse">
<stop/>
<stop offset="1"/>
</linearGradient>
<linearGradient id="paint18_linear_148_179" x1="177.174" y1="409.825" x2="177.174" y2="369.104" gradientUnits="userSpaceOnUse">
<stop/>
<stop offset="1"/>
</linearGradient>
<linearGradient id="paint19_linear_148_179" x1="177.171" y1="486.613" x2="177.171" y2="414.008" gradientUnits="userSpaceOnUse">
<stop/>
<stop offset="1"/>
</linearGradient>
<linearGradient id="paint20_linear_148_179" x1="177.174" y1="477.307" x2="177.174" y2="414.267" gradientUnits="userSpaceOnUse">
<stop/>
<stop offset="1"/>
</linearGradient>
<linearGradient id="paint21_linear_148_179" x1="177.172" y1="313.618" x2="177.172" y2="305.926" gradientUnits="userSpaceOnUse">
<stop/>
<stop offset="1"/>
</linearGradient>
<linearGradient id="paint22_linear_148_179" x1="177.172" y1="475.389" x2="177.172" y2="405.471" gradientUnits="userSpaceOnUse">
<stop/>
<stop offset="1"/>
</linearGradient>
<linearGradient id="paint23_linear_148_179" x1="177.172" y1="473.937" x2="177.172" y2="420.497" gradientUnits="userSpaceOnUse">
<stop/>
<stop offset="1"/>
</linearGradient>
<linearGradient id="paint24_linear_148_179" x1="177.171" y1="487.849" x2="177.171" y2="394.887" gradientUnits="userSpaceOnUse">
<stop/>
<stop offset="1"/>
</linearGradient>
<linearGradient id="paint25_linear_148_179" x1="177.171" y1="486.958" x2="177.171" y2="372.007" gradientUnits="userSpaceOnUse">
<stop/>
<stop offset="1"/>
</linearGradient>
<linearGradient id="paint26_linear_148_179" x1="177.173" y1="450.798" x2="177.173" y2="394.247" gradientUnits="userSpaceOnUse">
<stop/>
<stop offset="1"/>
</linearGradient>
<linearGradient id="paint27_linear_148_179" x1="177.172" y1="474.318" x2="177.172" y2="469.281" gradientUnits="userSpaceOnUse">
<stop/>
<stop offset="1"/>
</linearGradient>
<linearGradient id="paint28_linear_148_179" x1="177.172" y1="474.023" x2="177.172" y2="470.775" gradientUnits="userSpaceOnUse">
<stop/>
<stop offset="1"/>
</linearGradient>
<linearGradient id="paint29_linear_148_179" x1="177.172" y1="489.214" x2="177.172" y2="483.07" gradientUnits="userSpaceOnUse">
<stop/>
<stop offset="1"/>
</linearGradient>
<linearGradient id="paint30_linear_148_179" x1="177.172" y1="490.623" x2="177.172" y2="483.969" gradientUnits="userSpaceOnUse">
<stop/>
<stop offset="1"/>
</linearGradient>
<linearGradient id="paint31_linear_148_179" x1="177.174" y1="473.765" x2="177.174" y2="468.728" gradientUnits="userSpaceOnUse">
<stop/>
<stop offset="1"/>
</linearGradient>
<linearGradient id="paint32_linear_148_179" x1="177.174" y1="473.427" x2="177.174" y2="470.136" gradientUnits="userSpaceOnUse">
<stop/>
<stop offset="1"/>
</linearGradient>
<linearGradient id="paint33_linear_148_179" x1="177.173" y1="486.742" x2="177.173" y2="480.598" gradientUnits="userSpaceOnUse">
<stop/>
<stop offset="1"/>
</linearGradient>
<linearGradient id="paint34_linear_148_179" x1="177.174" y1="488.194" x2="177.174" y2="481.533" gradientUnits="userSpaceOnUse">
<stop/>
<stop offset="1"/>
</linearGradient>
<linearGradient id="paint35_linear_148_179" x1="177.171" y1="370.9" x2="177.171" y2="253.237" gradientUnits="userSpaceOnUse">
<stop/>
<stop offset="1"/>
</linearGradient>
</defs>
</svg>
