<?xml version="1.0" encoding="utf-8"?>
<!-- Generator: Adobe Illustrator 27.7.0, SVG Export Plug-In . SVG Version: 6.00 Build 0)  -->
<svg version="1.1" xmlns="http://www.w3.org/2000/svg" xmlns:xlink="http://www.w3.org/1999/xlink" x="0px" y="0px"
	 viewBox="0 0 595.28 841.89" style="enable-background:new 0 0 595.28 841.89;" xml:space="preserve">
<style type="text/css">
	.st0{display:none;}
	.st1{display:inline;fill:none;stroke:#000000;stroke-width:3;stroke-miterlimit:10;}
</style>
<g id="Calque_1" class="st0">
	<path class="st1" d="M385.13,551.19c13.31-25.13,18.41-40.19,20.43-59.52c3.25-31.06-11.13-57.6-15.05-64.4
		c-15.33-26.52-31.69-29.54-31.18-45.86c0.69-22.21,31.63-37.68,34.41-39.03c20.62-10.02,28.58-2.29,60.21-11.71
		c16.26-4.84,33.3-9.92,46.23-24.39c8.91-9.97,11.67-19.98,17.2-40c5.46-19.78,8.3-30.05,2.15-37.08
		c-6.02-6.88-15.54-4.82-36.56-7.81c0,0-26.59-3.64-49.46-13.66c-39-17.09-32.98-43.24-68.83-54.18
		c-18.1-5.52-38.48-4.61-42.98-4.36c-12.94,0.72-24.32,3.25-32.69,5.1c-19.15,4.25-18.18,6.18-28.04,7.37
		c-20.3,2.45-25.25-5.65-44.63-4.67c-17.48,0.88-30.16,8.31-37.63,12.68c-9.43,5.52-34.77,20.36-34.41,39.03
		c0.26,13.55,14.47,14.18,30.1,39.03c7.07,11.23,17.2,27.34,19.35,48.78c2.39,23.81-6.73,37.41,2.15,43.91
		c7.4,5.42,20.45,0.87,24.11-0.41c15.45-5.39,23.01-17.83,31.8-32.76c5.19-8.83,12.57-21.63,17.2-41.95
		c5.34-23.43,14.34-62.96-8.6-80.01c-13.44-9.99-32.78-8.51-41.93-7.81c-17.13,1.31-29.01,7.57-38.71,12.68
		c-9.54,5.03-26.3,13.87-38.71,32.2c-3.19,4.71-13.96,21.69-13.98,44.88c-0.01,15.85,5.01,14.62,15.05,57.57
		c2.66,11.38,4.97,22.87,2.15,37.08c-0.87,4.38-2.23,10.93-6.45,18.54c-4.12,7.42-7.21,9.07-21.5,25.37
		c-9.76,11.13-12.68,15.33-11.83,20.49c0.62,3.71,3.08,7.24,6.55,9.05c9.62,5.02,26.28-3.56,27.86-12.95
		c0.66-3.91-1.13-8.95-4.3-9.76c-4.58-1.16-10.44,6.96-11.01,7.76c-7.41,10.47-3.57,21.46-2.97,34.2c0.52,11.03-2.52,20.69-8.6,40
		C99.67,533.88,83.3,536.33,83,558.02c-0.24,17.23,9.9,29.64,24.73,47.81c14.65,17.94,31.63,29.2,65.59,51.71
		c25.38,16.83,39.3,24,46.03,27.2c0.94,0.45,1.63,0.76,2.35,1.1c30.64,14.17,45.96,21.26,53.62,16.87
		c7.86-4.51,7.03-18.33,6.59-25.65c-0.51-8.42-3.25-14.68-5.38-19.51c-4.29-9.78-9.64-16.27-13.98-21.47
		c-7.49-8.97-14.9-14.62-23.65-21.47c-6.76-5.28-9.1-6.53-19.35-14.64c-9.07-7.17-11.84-9.83-14.52-13.12
		c-4.62-5.67-7.26-10.54-9.13-15.62c0,0-5.28-11.33-7.21-24.23c-3.72-24.93,7.82-50.68,10.43-56.31
		c3.43-7.38,10.54-20.45,51.61-64.4c46.44-49.69,39.01-43.58,65.59-64.4c15.79-12.37,30.18-26.43,45.53-39.34
		c11.9-10,23.57-19.59,24-33.47c0.25-8.12-3.44-14.66-4.85-17.1c-3.42-5.91-8.51-10.79-26-20c-24.23-12.75-32.87-13.07-35.43-21.19
		c-2.07-6.59,1.47-13.24,4.43-18.81c1.43-2.69,7.6-13.53,20.59-18.12c6.93-2.45,12.72-2.04,14.41-1.88c4.03,0.38,10.39,0.98,15.38,6
		c0.88,0.88,7.27,7.44,5.38,14.64C377.69,220.5,368,223.17,365,224c-12.04,3.32-22.64-0.58-26-2c-10.29-4.35-12.59-10.02-15-10
		c-21.19,0.14-54.75,438.98-9.33,445.75C322.11,658.85,346.21,624.69,385.13,551.19z"/>
</g>
<g id="Calque_2">
	<path d="M269.75,705.52c-9.07,0-23.49-6.67-48.68-18.32l-0.36-0.17c-0.6-0.28-1.21-0.56-2-0.94c-11.81-5.62-27.36-14.8-46.22-27.3
		c-34.04-22.57-51.13-33.89-65.92-52.01c-14.69-18-25.31-31-25.07-48.78c0.15-11.3,4.6-17.75,10.24-25.93
		c5.68-8.23,12.74-18.48,18.86-37.92c6.02-19.12,9.04-28.72,8.53-39.48c-0.14-2.95-0.46-5.82-0.76-8.61
		c-0.29-2.61-0.57-5.18-0.7-7.72c-2.69,0-5.19-0.55-7.31-1.66c-3.82-1.99-6.63-5.87-7.33-10.13c-1-6.02,2.54-10.74,12.18-21.72
		c5.14-5.86,8.9-9.9,11.64-12.85c5.04-5.41,7.12-7.65,9.68-12.26c4.2-7.56,5.51-14.16,6.29-18.1c2.71-13.64,0.63-24.58-2.14-36.44
		c-4.91-21.01-8.64-31.47-11.11-38.4c-2.65-7.44-3.99-11.18-3.98-19.51c0.02-21.5,8.92-37.87,14.23-45.72
		c1.44-2.13,2.94-4.13,4.48-6.02c-0.93-1.96-1.46-4.14-1.51-6.77c-0.38-19.55,25.43-34.66,35.15-40.35
		c7.66-4.48,20.47-11.98,38.31-12.89c9.32-0.47,15.39,1.11,21.27,2.63c6.56,1.7,12.76,3.31,23.26,2.05c4.7-0.57,6.84-1.3,10.08-2.42
		c3.38-1.16,8.02-2.76,17.82-4.93c8.39-1.86,19.87-4.41,32.93-5.13c7.37-0.41,26.37-0.81,43.51,4.42
		c18.66,5.69,26.28,15.44,34.35,25.77c7.77,9.94,15.8,20.21,34.65,28.47c22.23,9.74,47.97,13.4,49.06,13.55l1.24,0.17
		c5.87,0.8,10.74,1.2,15.07,1.55c10.36,0.85,16.61,1.36,21.18,6.58c6.68,7.64,3.66,18.58-1.83,38.46
		c-5.59,20.23-8.39,30.38-17.53,40.61c-13.21,14.79-30.35,19.89-46.92,24.83c-15.39,4.58-25.07,5.14-33.61,5.64
		c-8.91,0.51-15.94,0.92-26.37,5.98c-3.37,1.63-32.91,16.58-33.56,37.72c-0.26,8.39,4.29,13.01,11.19,20.01
		c5.72,5.81,12.85,13.04,19.79,25.05c5.62,9.72,18.36,35.55,15.25,65.3c-2.07,19.73-7.26,34.88-20.6,60.06l-1.33-0.7l1.33,0.7
		c-18.69,35.29-34.54,62.67-47.11,81.39c-16.24,24.16-21.99,26.38-24.89,25.95c-12.83-1.91-20.58-33.54-23.05-94.01
		c-1.98-48.4-0.36-115.1,4.45-182.99c0.04-0.56,0.08-1.13,0.12-1.69c-5.36,5.01-10.98,11.07-22.46,23.48
		c-5.62,6.07-12.62,13.63-21.68,23.32c-42.98,45.99-48.63,58.16-51.34,64c-4.23,9.1-13.7,32.74-10.31,55.46
		c1.87,12.52,7.03,23.7,7.08,23.81l0.05,0.12c1.98,5.4,4.72,10.09,8.88,15.19c2.53,3.1,5.19,5.7,14.29,12.89
		c5.84,4.62,9.16,7.04,12.09,9.18c2.23,1.63,4.34,3.17,7.25,5.45l1.01,0.79c8.35,6.52,15.57,12.15,22.87,20.89
		c4.11,4.92,9.73,11.65,14.2,21.82c2.1,4.78,4.98,11.34,5.5,20.03c0.46,7.71,1.33,22.07-7.34,27.04
		C274.29,705.03,272.22,705.52,269.75,705.52z M120.67,438.13c0.12,2.45,0.4,4.97,0.69,7.6c0.31,2.83,0.63,5.76,0.78,8.8
		c0.53,11.3-2.54,21.07-8.67,40.52c-6.26,19.88-13.46,30.33-19.25,38.73c-5.55,8.06-9.57,13.88-9.71,24.26
		c-0.23,16.69,9.57,28.68,24.39,46.84c14.51,17.77,31.47,29.01,65.25,51.41c18.74,12.42,34.16,21.54,45.85,27.09
		c0.78,0.37,1.38,0.65,1.97,0.92l0.37,0.17c29.18,13.5,45.26,20.94,52.25,16.93c7.05-4.04,6.26-17.19,5.84-24.26
		c-0.49-8.16-3.13-14.17-5.25-19c-4.3-9.79-9.76-16.33-13.76-21.11c-7.1-8.5-14.19-14.04-22.41-20.45l-1.01-0.79
		c-2.87-2.24-4.96-3.77-7.18-5.39c-2.95-2.16-6.3-4.6-12.18-9.25c-9.32-7.37-12.08-10.07-14.75-13.35c-4.37-5.36-7.25-10.29-9.35-16
		c-0.46-1-5.42-11.95-7.3-24.58c-3.51-23.52,6.21-47.81,10.55-57.16c2.78-5.99,8.57-18.45,51.87-64.79
		c9.05-9.69,16.05-17.24,21.67-23.31c13.24-14.3,18.73-20.23,24.98-25.8c3.19-43.47,7.42-83.57,11.96-113.48
		c7.01-46.17,12.12-51.48,14.82-52.11c2.54-4.52,9.02-13.87,21.03-18.12c6.56-2.32,12.24-2.22,15.05-1.96
		c4.09,0.39,10.93,1.03,16.3,6.43c1.85,1.86,7.75,8.53,5.76,16.07c-1.52,5.78-6.83,9.96-15.81,12.43
		c-12.08,3.33-22.89-0.33-26.98-2.06c-6.47-2.74-9.88-5.95-12.14-8.08c-0.5-0.47-1.1-1.04-1.58-1.41
		c-2.72,5.17-5.44,10.91-3.69,16.47c1.49,4.73,5.43,6.5,14.97,10.8c5.11,2.3,11.47,5.17,19.73,9.52
		c17.76,9.35,23.05,14.44,26.6,20.58c1.32,2.27,5.32,9.19,5.05,17.9c-0.44,14.32-11.87,23.93-23.97,34.09l-0.57,0.48
		c-6.23,5.24-12.41,10.76-18.38,16.11c-8.74,7.82-17.78,15.9-27.19,23.27l-1.68,1.32c-7.58,5.93-12.22,9.57-16.37,13.21
		c-0.12,1.6-0.23,3.21-0.35,4.82c-4.8,67.79-6.42,134.36-4.45,182.66c3.15,77.14,14.2,90.23,20.5,91.17
		c1.22,0.17,13.54-1.2,68.91-105.77c13.13-24.8,18.24-39.68,20.26-58.97c3.02-28.87-9.38-54.02-14.86-63.49
		c-6.75-11.68-13.72-18.76-19.33-24.45c-7.17-7.28-12.35-12.53-12.05-22.21c0.71-22.91,31.72-38.61,35.25-40.33
		c10.97-5.33,18.63-5.77,27.51-6.28c8.38-0.48,17.87-1.03,32.93-5.52c16.17-4.82,32.9-9.8,45.54-23.95
		c8.67-9.71,11.41-19.63,16.87-39.4c5.38-19.49,8.09-29.27,2.47-35.69c-3.76-4.3-9.23-4.75-19.16-5.56
		c-4.44-0.36-9.96-0.82-16.47-1.74c-1.1-0.15-27.25-3.87-49.85-13.77c-19.54-8.56-28.18-19.62-35.81-29.37
		c-7.77-9.94-15.11-19.33-32.86-24.75c-16.68-5.09-35.25-4.7-42.46-4.3c-12.81,0.72-24.16,3.23-32.44,5.07
		c-9.64,2.14-14.19,3.7-17.5,4.84c-3.3,1.13-5.68,1.95-10.69,2.56c-11.06,1.33-17.83-0.42-24.38-2.12
		c-5.66-1.47-11.51-2.98-20.36-2.54c-17.11,0.87-29.53,8.14-36.95,12.48c-9.3,5.45-34.01,19.91-33.66,37.7
		c0.03,1.59,0.27,2.98,0.71,4.26c11.52-12.99,24.83-20.01,32.58-24.09c9.74-5.13,21.85-11.52,39.29-12.85
		c9.43-0.72,29.05-2.22,42.94,8.1c23.73,17.63,14.61,57.64,9.17,81.54c-4.78,20.97-12.66,34.37-17.37,42.38
		c-8.39,14.26-16.31,27.73-32.6,33.42c-11.58,4.04-20.16,4.11-25.49,0.21c-5.78-4.23-4.91-10.86-3.7-20.03
		c0.87-6.63,1.96-14.88,0.94-24.94c-2.12-21.1-11.95-36.72-19.13-48.14c-7.31-11.63-14.18-17.75-19.7-22.68
		c-3.01-2.69-5.61-5.01-7.48-7.6c-1.24,1.57-2.46,3.22-3.63,4.96c-5.12,7.56-13.7,23.35-13.72,44.04
		c-0.01,7.81,1.19,11.16,3.81,18.5c2.49,6.99,6.26,17.55,11.21,38.73c2.86,12.21,4.99,23.48,2.16,37.71
		c-0.82,4.12-2.19,11.01-6.61,18.97c-2.73,4.92-5.04,7.41-10.11,12.85c-2.73,2.94-6.47,6.96-11.58,12.78
		c-9.56,10.9-12.22,14.75-11.47,19.25c0.56,3.35,2.77,6.4,5.76,7.96c1.66,0.87,3.67,1.3,5.86,1.3c0.06-5.4,1.13-10.65,4.77-15.79
		c1.63-2.3,7.34-9.67,12.6-8.35c4.03,1.02,6.18,6.89,5.41,11.46c-0.81,4.81-5.19,9.72-11.44,12.83
		C126.18,436.87,123.37,437.75,120.67,438.13z M133.67,414.03c-2.71,0-6.69,4.2-8.84,7.24c-3.14,4.44-4.14,8.98-4.22,13.82
		c2.28-0.36,4.67-1.13,7-2.29c5.32-2.65,9.18-6.83,9.82-10.64c0.58-3.44-1.03-7.51-3.19-8.05
		C134.06,414.06,133.87,414.03,133.67,414.03z M317.64,229.1c-1.84,7.35-4.01,18.15-6.42,34.04c-4.43,29.15-8.55,68.02-11.71,110.25
		c3.65-3.07,7.93-6.43,14.21-11.34l1.68-1.32c9.33-7.31,18.33-15.36,27.04-23.14c5.99-5.36,12.19-10.9,18.46-16.17l0.57-0.48
		c11.57-9.72,22.5-18.91,22.9-31.89c0.24-7.86-3.44-14.21-4.65-16.3c-3.27-5.65-8.29-10.42-25.4-19.42
		c-8.18-4.3-14.49-7.15-19.56-9.43c-9.79-4.41-14.71-6.63-16.6-12.64C317.92,230.53,317.75,229.81,317.64,229.1z M147.92,215.87
		c1.65,2.55,4.22,4.84,7.5,7.77c5.36,4.78,12.71,11.33,20.24,23.32c6.92,11,17.38,27.64,19.58,49.43
		c1.05,10.4-0.06,18.84-0.96,25.63c-1.25,9.48-1.66,14.17,2.5,17.22c4.49,3.29,12.14,3.08,22.73-0.62
		c15.25-5.32,22.55-17.73,31-32.11c4.92-8.37,12.36-21.01,17.03-41.53c5.28-23.19,14.12-62-8.03-78.47
		c-12.99-9.65-31.86-8.21-40.92-7.51c-16.82,1.29-28.63,7.51-38.12,12.51C172.19,195.89,159.14,202.76,147.92,215.87z
		 M326.15,211.24c0.69,0.46,1.38,1.12,2.19,1.88c2.1,1.98,5.27,4.97,11.25,7.5c3.8,1.61,13.85,5.02,25.02,1.94
		c2.93-0.81,11.85-3.27,13.7-10.3c1.62-6.16-3.87-12.07-4.99-13.2c-4.6-4.63-10.53-5.19-14.45-5.56c-2.56-0.24-7.75-0.33-13.77,1.8
		C334.7,198.97,328.77,206.84,326.15,211.24z"/>
</g>
</svg>
