<?xml version="1.0" encoding="UTF-8"?>
<svg id="Calque_2" data-name="Calque 2" xmlns="http://www.w3.org/2000/svg" viewBox="0 0 444.98 560.03">
  <defs>
    <style>
      .cls-1 {
        fill: #1d1d1b;
        stroke: #1d3124;
        stroke-miterlimit: 10;
        stroke-width: 2px;
      }
    </style>
  </defs>
  <path class="cls-1" d="m189.25,559.03c-9.07,0-23.49-6.67-48.68-18.32l-.36-.17c-.6-.28-1.21-.56-2-.94-11.81-5.62-27.36-14.8-46.22-27.3-34.04-22.57-51.13-33.89-65.92-52.01-14.69-18-25.31-31-25.07-48.78.15-11.3,4.6-17.75,10.24-25.93,5.68-8.23,12.74-18.48,18.86-37.92,6.02-19.12,9.04-28.72,8.53-39.48-.14-2.95-.46-5.82-.76-8.61-.29-2.61-.57-5.18-.7-7.72-2.69,0-5.19-.55-7.31-1.66-3.82-1.99-6.63-5.87-7.33-10.13-1-6.02,2.54-10.74,12.18-21.72,5.14-5.86,8.9-9.9,11.64-12.85,5.04-5.41,7.12-7.65,9.68-12.26,4.2-7.56,5.51-14.16,6.29-18.1,2.71-13.64.63-24.58-2.14-36.44-4.91-21.01-8.64-31.47-11.11-38.4-2.65-7.44-3.99-11.18-3.98-19.51.02-21.5,8.92-37.87,14.23-45.72,1.44-2.13,2.94-4.13,4.48-6.02-.93-1.96-1.46-4.14-1.51-6.77-.38-19.55,25.43-34.66,35.15-40.35,7.66-4.48,20.47-11.98,38.31-12.89,9.32-.47,15.39,1.11,21.27,2.63,6.56,1.7,12.76,3.31,23.26,2.05,4.7-.57,6.84-1.3,10.08-2.42,3.38-1.16,8.02-2.76,17.82-4.93,8.39-1.86,19.87-4.41,32.93-5.13,7.37-.41,26.37-.81,43.51,4.42,18.66,5.69,26.28,15.44,34.35,25.77,7.77,9.94,15.8,20.21,34.65,28.47,22.23,9.74,47.97,13.4,49.06,13.55l1.24.17c5.87.8,10.74,1.2,15.07,1.55,10.36.85,16.61,1.36,21.18,6.58,6.68,7.64,3.66,18.58-1.83,38.46-5.59,20.23-8.39,30.38-17.53,40.61-13.21,14.79-30.35,19.89-46.92,24.83-15.39,4.58-25.07,5.14-33.61,5.64-8.91.51-15.94.92-26.37,5.98-3.37,1.63-32.91,16.58-33.56,37.72-.26,8.39,4.29,13.01,11.19,20.01,5.72,5.81,12.85,13.04,19.79,25.05,5.62,9.72,18.36,35.55,15.25,65.3-2.07,19.73-7.26,34.88-20.6,60.06l-1.33-.7,1.33.7c-18.69,35.29-34.54,62.67-47.11,81.39-16.24,24.16-21.99,26.38-24.89,25.95-12.83-1.91-20.58-33.54-23.05-94.01-1.98-48.4-.36-115.1,4.45-182.99.04-.56.08-1.13.12-1.69-5.36,5.01-10.98,11.07-22.46,23.48-5.62,6.07-12.62,13.63-21.68,23.32-42.98,45.99-48.63,58.16-51.34,64-4.23,9.1-13.7,32.74-10.31,55.46,1.87,12.52,7.03,23.7,7.08,23.81l.05.12c1.98,5.4,4.72,10.09,8.88,15.19,2.53,3.1,5.19,5.7,14.29,12.89,5.84,4.62,9.16,7.04,12.09,9.18,2.23,1.63,4.34,3.17,7.25,5.45l1.01.79c8.35,6.52,15.57,12.15,22.87,20.89,4.11,4.92,9.73,11.65,14.2,21.82,2.1,4.78,4.98,11.34,5.5,20.03.46,7.71,1.33,22.07-7.34,27.04-1.78,1.02-3.86,1.52-6.32,1.52ZM40.17,291.63c.12,2.45.4,4.97.69,7.6.31,2.83.63,5.76.78,8.8.53,11.3-2.54,21.07-8.67,40.52-6.26,19.88-13.46,30.33-19.25,38.73-5.55,8.06-9.57,13.88-9.71,24.26-.23,16.69,9.57,28.68,24.39,46.84,14.51,17.77,31.47,29.01,65.25,51.41,18.74,12.42,34.16,21.54,45.85,27.09.78.37,1.38.65,1.97.92l.37.17c29.18,13.5,45.26,20.94,52.25,16.93,7.05-4.04,6.26-17.19,5.84-24.26-.49-8.16-3.13-14.17-5.25-19-4.3-9.79-9.76-16.33-13.76-21.11-7.1-8.5-14.19-14.04-22.41-20.45l-1.01-.79c-2.87-2.24-4.96-3.77-7.18-5.39-2.95-2.16-6.3-4.6-12.18-9.25-9.32-7.37-12.08-10.07-14.75-13.35-4.37-5.36-7.25-10.29-9.35-16-.46-1-5.42-11.95-7.3-24.58-3.51-23.52,6.21-47.81,10.55-57.16,2.78-5.99,8.57-18.45,51.87-64.79,9.05-9.69,16.05-17.24,21.67-23.31,13.24-14.3,18.73-20.23,24.98-25.8,3.19-43.47,7.42-83.57,11.96-113.48,7.01-46.17,12.12-51.48,14.82-52.11,2.54-4.52,9.02-13.87,21.03-18.12,6.56-2.32,12.24-2.22,15.05-1.96,4.09.39,10.93,1.03,16.3,6.43,1.85,1.86,7.75,8.53,5.76,16.07-1.52,5.78-6.83,9.96-15.81,12.43-12.08,3.33-22.89-.33-26.98-2.06-6.47-2.74-9.88-5.95-12.14-8.08-.5-.47-1.1-1.04-1.58-1.41-2.72,5.17-5.44,10.91-3.69,16.47,1.49,4.73,5.43,6.5,14.97,10.8,5.11,2.3,11.47,5.17,19.73,9.52,17.76,9.35,23.05,14.44,26.6,20.58,1.32,2.27,5.32,9.19,5.05,17.9-.44,14.32-11.87,23.93-23.97,34.09l-.57.48c-6.23,5.24-12.41,10.76-18.38,16.11-8.74,7.82-17.78,15.9-27.19,23.27l-1.68,1.32c-7.58,5.93-12.22,9.57-16.37,13.21-.12,1.6-.23,3.21-.35,4.82-4.8,67.79-6.42,134.36-4.45,182.66,3.15,77.14,14.2,90.23,20.5,91.17,1.22.17,13.54-1.2,68.91-105.77,13.13-24.8,18.24-39.68,20.26-58.97,3.02-28.87-9.38-54.02-14.86-63.49-6.75-11.68-13.72-18.76-19.33-24.45-7.17-7.28-12.35-12.53-12.05-22.21.71-22.91,31.72-38.61,35.25-40.33,10.97-5.33,18.63-5.77,27.51-6.28,8.38-.48,17.87-1.03,32.93-5.52,16.17-4.82,32.9-9.8,45.54-23.95,8.67-9.71,11.41-19.63,16.87-39.4,5.38-19.49,8.09-29.27,2.47-35.69-3.76-4.3-9.23-4.75-19.16-5.56-4.44-.36-9.96-.82-16.47-1.74-1.1-.15-27.25-3.87-49.85-13.77-19.54-8.56-28.18-19.62-35.81-29.37-7.77-9.94-15.11-19.33-32.86-24.75-16.68-5.09-35.25-4.7-42.46-4.3-12.81.72-24.16,3.23-32.44,5.07-9.64,2.14-14.19,3.7-17.5,4.84-3.3,1.13-5.68,1.95-10.69,2.56-11.06,1.33-17.83-.42-24.38-2.12-5.66-1.47-11.51-2.98-20.36-2.54-17.11.87-29.53,8.14-36.95,12.48-9.3,5.45-34.01,19.91-33.66,37.7.03,1.59.27,2.98.71,4.26,11.52-12.99,24.83-20.01,32.58-24.09,9.74-5.13,21.85-11.52,39.29-12.85,9.43-.72,29.05-2.22,42.94,8.1,23.73,17.63,14.61,57.64,9.17,81.54-4.78,20.97-12.66,34.37-17.37,42.38-8.39,14.26-16.31,27.73-32.6,33.42-11.58,4.04-20.16,4.11-25.49.21-5.78-4.23-4.91-10.86-3.7-20.03.87-6.63,1.96-14.88.94-24.94-2.12-21.1-11.95-36.72-19.13-48.14-7.31-11.63-14.18-17.75-19.7-22.68-3.01-2.69-5.61-5.01-7.48-7.6-1.24,1.57-2.46,3.22-3.63,4.96-5.12,7.56-13.7,23.35-13.72,44.04,0,7.81,1.19,11.16,3.81,18.5,2.49,6.99,6.26,17.55,11.21,38.73,2.86,12.21,4.99,23.48,2.16,37.71-.82,4.12-2.19,11.01-6.61,18.97-2.73,4.92-5.04,7.41-10.11,12.85-2.73,2.94-6.47,6.96-11.58,12.78-9.56,10.9-12.22,14.75-11.47,19.25.56,3.35,2.77,6.4,5.76,7.96,1.66.87,3.67,1.3,5.86,1.3.06-5.4,1.13-10.65,4.77-15.79,1.63-2.3,7.34-9.67,12.6-8.35,4.03,1.02,6.18,6.89,5.41,11.46-.81,4.81-5.19,9.72-11.44,12.83-2.77,1.38-5.59,2.27-8.29,2.65Zm13.01-24.1c-2.71,0-6.69,4.2-8.84,7.24-3.14,4.44-4.14,8.98-4.22,13.82,2.28-.36,4.67-1.13,7-2.29,5.32-2.65,9.18-6.83,9.82-10.64.58-3.44-1.03-7.51-3.19-8.05-.18-.05-.37-.07-.57-.07ZM237.14,82.6c-1.84,7.35-4.01,18.15-6.42,34.04-4.43,29.15-8.55,68.02-11.71,110.25,3.65-3.07,7.93-6.43,14.21-11.34l1.68-1.32c9.33-7.31,18.33-15.36,27.04-23.14,5.99-5.36,12.19-10.9,18.46-16.17l.57-.48c11.57-9.72,22.5-18.91,22.9-31.89.24-7.86-3.44-14.21-4.65-16.3-3.27-5.65-8.29-10.42-25.4-19.42-8.18-4.3-14.49-7.15-19.56-9.43-9.79-4.41-14.71-6.63-16.6-12.64-.23-.72-.39-1.44-.5-2.16Zm-169.72-13.23c1.65,2.55,4.22,4.84,7.5,7.77,5.36,4.78,12.71,11.33,20.24,23.32,6.92,11,17.38,27.64,19.58,49.43,1.05,10.4-.06,18.84-.96,25.63-1.25,9.48-1.66,14.17,2.5,17.22,4.49,3.29,12.14,3.08,22.73-.62,15.25-5.32,22.55-17.73,31-32.11,4.92-8.37,12.36-21.01,17.03-41.53,5.28-23.19,14.12-62-8.03-78.47-12.99-9.65-31.86-8.21-40.92-7.51-16.82,1.29-28.63,7.51-38.12,12.51-8.29,4.37-21.33,11.24-32.55,24.35Zm178.23-4.63c.69.46,1.38,1.12,2.19,1.88,2.1,1.98,5.27,4.97,11.25,7.5,3.8,1.61,13.85,5.02,25.02,1.94,2.93-.81,11.85-3.27,13.7-10.3,1.62-6.16-3.87-12.07-4.99-13.2-4.6-4.63-10.53-5.19-14.45-5.56-2.56-.24-7.75-.33-13.77,1.8-10.4,3.68-16.32,11.54-18.94,15.95Z"/>
</svg>