<svg width="176" height="237" viewBox="0 0 176 237" fill="none" xmlns="http://www.w3.org/2000/svg">
<path d="M72.5345 110.051C72.4512 110.007 72.3643 109.966 72.2773 109.927C68.6194 108.717 64.8534 111.317 62.8875 114.339C60.9554 117.001 60.2195 121.361 62.9802 123.673C63.3843 124.002 63.8734 124.214 64.3792 124.329C68.8026 125.065 72.8918 121.468 74.3522 117.454C75.4869 114.964 75.1063 111.389 72.5345 110.051ZM58.2784 102.591C56.1722 101.525 53.4029 102.796 51.9931 104.63C49.1577 108.242 48.2833 114.154 51.6972 117.612C52.0349 117.902 52.4265 118.124 52.8462 118.271C55.8623 119.288 58.7235 116.772 59.9727 114.169C61.6892 110.774 62.0558 105.979 59.134 103.194C58.8661 102.942 58.5796 102.742 58.2784 102.591ZM75.4287 126.39C71.7154 124.676 67.2937 126.995 65.1155 130.206C63.3214 132.403 62.8474 136.377 65.4996 138.054C69.37 140.07 74.2324 137.31 76.2692 133.78C77.7872 131.538 77.9579 127.917 75.4287 126.39ZM43.5186 110.289C41.9962 109.453 39.9918 109.575 38.6438 110.885C35.0413 114.392 34.8467 121.179 38.7765 124.433C40.4437 125.741 42.8296 125.176 44.2121 123.696C47.1604 120.526 47.4765 115.176 45.0172 111.697C44.6375 111.091 44.1144 110.616 43.5186 110.289ZM55.5721 126.521C52.5694 124.917 48.6934 124.825 45.5156 126.082C41.9779 127.636 38.5838 129.832 36.0943 132.854C33.9695 134.85 34.3152 138.646 36.8706 140.041C39.909 141.785 43.7156 141.059 46.8691 142.548C49.6884 143.543 51.2811 146.169 53.1376 148.325C54.6656 150.261 57.5964 151.409 59.7833 149.778C61.7748 147.99 61.8677 144.992 61.9506 142.498C61.6785 138.231 61.3521 133.725 59.1619 129.975C58.2966 128.45 57.0385 127.306 55.5721 126.521Z" fill="#7F7F7F"/>
<path d="M127.365 26.5661C127.282 26.5227 127.195 26.4814 127.108 26.443C123.45 25.2328 119.684 27.8335 117.718 30.8548C115.786 33.517 115.05 37.8771 117.811 40.1891C118.214 40.518 118.704 40.73 119.21 40.8453C123.633 41.5813 127.722 37.9843 129.183 33.9704C130.317 31.4804 129.936 27.9045 127.365 26.5661ZM113.109 19.106C111.002 18.0409 108.234 19.3112 106.824 21.1459C103.987 24.758 103.113 30.6702 106.527 34.1272C106.865 34.4176 107.256 34.6393 107.677 34.7868C110.692 35.8042 113.554 33.287 114.802 30.6845C116.52 27.2893 116.887 22.494 113.964 19.71C113.696 19.4572 113.41 19.2581 113.109 19.106ZM130.259 42.9059C126.546 41.1925 122.124 43.51 119.945 46.722C118.152 48.9193 117.677 52.8919 120.329 54.5689C124.201 56.5865 129.063 53.8254 131.1 50.2961C132.618 48.0537 132.788 44.433 130.259 42.9059ZM98.3493 26.8051C96.8263 25.9697 94.822 26.0915 93.4736 27.4014C89.8713 30.9077 89.677 37.6953 93.6069 40.9496C95.2738 42.2567 97.6595 41.6911 99.0424 40.2114C101.991 37.0415 102.307 31.6917 99.8475 28.2128C99.4679 27.6071 98.9447 27.1316 98.3493 26.8051ZM110.403 43.0376C107.4 41.4332 103.523 41.3412 100.346 42.5979C96.8088 44.1516 93.4143 46.3477 90.9248 49.3696C88.8002 51.3658 89.1456 55.1623 91.701 56.5566C94.7392 58.3012 98.546 57.5753 101.699 59.0637C104.518 60.0595 106.111 62.686 107.968 64.8423C109.496 66.777 112.427 67.9246 114.613 66.2953C116.605 64.506 116.698 61.5079 116.78 59.0138C116.509 54.7475 116.183 50.2414 113.992 46.492C113.127 44.9669 111.869 43.8214 110.403 43.0376Z" fill="#7F7F7F"/>
<path d="M136.365 94.5681C136.282 94.5245 136.195 94.4835 136.108 94.4447C132.45 93.2346 128.684 95.8358 126.718 98.8572C124.786 101.519 124.05 105.879 126.81 108.191C127.214 108.52 127.704 108.732 128.209 108.848C132.633 109.583 136.722 105.987 138.183 101.972C139.317 99.4822 138.936 95.9061 136.365 94.5681ZM122.109 87.1083C120.003 86.0425 117.233 87.3134 115.824 89.1476C112.987 92.7604 112.113 98.6718 115.526 102.13C115.864 102.42 116.256 102.641 116.677 102.788C119.692 103.807 122.554 101.289 123.802 98.6863C125.519 95.2916 125.886 90.4963 122.964 87.7119C122.696 87.4597 122.41 87.2598 122.109 87.1083ZM139.259 110.907C135.546 109.194 131.123 111.512 128.945 114.724C127.152 116.921 126.677 120.894 129.329 122.571C133.201 124.588 138.063 121.827 140.1 118.298C141.618 116.055 141.788 112.435 139.259 110.907ZM107.349 94.807C105.826 93.9718 103.822 94.0937 102.473 95.4036C98.8713 98.9094 98.6772 105.697 102.607 108.951C104.274 110.258 106.659 109.693 108.042 108.213C110.991 105.043 111.307 99.6938 108.847 96.2146C108.468 95.6089 107.945 95.1336 107.349 94.807ZM119.403 111.039C116.4 109.435 112.523 109.343 109.346 110.6C105.809 112.153 102.414 114.349 99.9249 117.371C97.8002 119.367 98.1457 123.164 100.701 124.558C103.739 126.303 107.546 125.577 110.699 127.065C113.519 128.061 115.111 130.688 116.968 132.844C118.496 134.779 121.427 135.926 123.613 134.297C125.605 132.508 125.698 129.51 125.78 127.015C125.509 122.749 125.183 118.243 122.992 114.494C122.127 112.969 120.869 111.823 119.403 111.039Z" fill="#7F7F7F"/>
<path d="M88.835 180.898C88.7516 180.855 88.6648 180.813 88.5776 180.775C84.9198 179.565 81.1536 182.166 79.1877 185.187C77.2559 187.849 76.5198 192.209 79.2804 194.521C79.6838 194.85 80.1738 195.062 80.6794 195.177C85.1028 195.913 89.1919 192.316 90.6524 188.302C91.7868 185.812 91.4057 182.237 88.835 180.898ZM74.579 173.438C72.4722 172.373 69.7034 173.643 68.2932 175.478C65.4571 179.09 64.5832 185.002 67.9966 188.459C68.3344 188.75 68.7261 188.971 69.1463 189.119C72.1619 190.136 75.0239 187.619 76.2722 185.017C77.9894 181.621 78.3564 176.826 75.434 174.042C75.1657 173.789 74.8799 173.59 74.579 173.438ZM91.7289 197.238C88.0156 195.524 83.5933 197.842 81.4149 201.054C79.6215 203.251 79.147 207.224 81.7992 208.901C85.6703 210.919 90.5329 208.157 92.5697 204.628C94.0876 202.386 94.2572 198.765 91.7289 197.238ZM59.8191 181.137C58.2961 180.302 56.2917 180.424 54.9433 181.733C51.3411 185.24 51.1467 192.027 55.0766 195.282C56.7435 196.589 59.1292 196.023 60.5121 194.543C63.4603 191.374 63.7767 186.024 61.3173 182.545C60.9377 181.939 60.4144 181.464 59.8191 181.137ZM71.8723 197.37C68.8701 195.765 64.993 195.673 61.816 196.93C58.2785 198.484 54.884 200.68 52.3945 203.702C50.2699 205.698 50.6153 209.494 53.1707 210.889C56.2089 212.633 60.0157 211.907 63.1688 213.396C65.9882 214.392 67.5809 217.018 69.4374 219.174C70.9659 221.109 73.8967 222.257 76.0831 220.627C78.0751 218.838 78.168 215.84 78.25 213.346C77.9788 209.079 77.6524 204.573 75.4619 200.824C74.5966 199.299 73.339 198.153 71.8723 197.37Z" fill="#7F7F7F"/>
</svg>
